<?xml version="1.0" encoding="iso-8859-1"?>
<!-- Generator: Adobe Illustrator 19.0.0, SVG Export Plug-In . SVG Version: 6.00 Build 0)  -->
<svg version="1.1" id="Layer_1" xmlns="http://www.w3.org/2000/svg" xmlns:xlink="http://www.w3.org/1999/xlink" x="0px" y="0px"
	 viewBox="0 0 512.002 512.002" style="enable-background:new 0 0 512.002 512.002;" xml:space="preserve">
<g>
	<g>
		<path d="M334.549,460.097c-0.148-0.731-0.365-1.45-0.651-2.135c-0.285-0.697-0.639-1.359-1.051-1.975
			c-0.411-0.628-0.891-1.21-1.416-1.736c-0.525-0.525-1.108-1.005-1.736-1.416c-0.617-0.411-1.279-0.765-1.975-1.051
			c-0.685-0.285-1.405-0.514-2.135-0.651c-3.711-0.754-7.651,0.468-10.3,3.117c-0.525,0.525-1.005,1.108-1.427,1.736
			c-0.411,0.617-0.765,1.279-1.051,1.975c-0.285,0.685-0.502,1.404-0.651,2.135c-0.148,0.731-0.217,1.484-0.217,2.227
			s0.069,1.496,0.217,2.227c0.148,0.731,0.365,1.45,0.651,2.135c0.285,0.697,0.639,1.359,1.051,1.975
			c0.422,0.628,0.902,1.21,1.427,1.736c2.124,2.124,5.058,3.346,8.073,3.346c0.742,0,1.496-0.08,2.227-0.228
			c0.731-0.137,1.45-0.365,2.135-0.651c0.697-0.285,1.359-0.639,1.975-1.051c0.628-0.411,1.21-0.891,1.736-1.416
			c0.525-0.525,1.005-1.108,1.416-1.736c0.411-0.617,0.765-1.279,1.051-1.975c0.285-0.685,0.502-1.405,0.651-2.135
			s0.228-1.484,0.228-2.227C334.778,461.582,334.698,460.828,334.549,460.097z"/>
	</g>
</g>
<g>
	<g>
		<path d="M481.853,341.049h-43.059V62.48c0-6.307-5.112-11.419-11.419-11.419h-88.336h-38.566V11.419
			C300.474,5.112,295.361,0,289.055,0h-66.109c-6.307,0-11.419,5.112-11.419,11.419v39.642h-38.565H84.627
			c-6.307,0-11.419,5.112-11.419,11.419v278.57H30.149c-6.307,0-11.419,5.112-11.419,11.419v57.876
			c0,6.307,5.112,11.419,11.419,11.419h61.964L44.122,494.28c-2.32,3.506-2.526,8.003-0.536,11.706
			c1.99,3.704,5.854,6.014,10.059,6.014h66.109c3.831,0,7.407-1.922,9.522-5.117l21.931-33.139h138.695
			c6.307,0,11.419-5.112,11.419-11.419s-5.112-11.419-11.419-11.419H166.32l19.286-29.143h140.79l56.33,85.121
			c2.115,3.195,5.691,5.117,9.522,5.117h66.109c4.204,0,8.068-2.31,10.059-6.014c1.99-3.703,1.785-8.201-0.536-11.706
			l-47.991-72.518h61.964c6.307,0,11.419-5.112,11.419-11.419v-57.876C493.272,346.162,488.159,341.049,481.853,341.049z
			 M234.365,22.837h43.271v28.224h-43.271V22.837z M184.381,73.898h38.566h66.109h38.566v31.513h-143.24V73.898z M96.046,73.898
			h65.499v42.932c0,6.307,5.112,11.419,11.419,11.419h166.076c6.307,0,11.419-5.112,11.419-11.419V73.898h65.499v267.151H96.046
			V73.898z M113.618,489.163H74.895l44.603-67.4h38.723L113.618,489.163z M437.108,489.163h-38.724l-44.603-67.4h38.723
			L437.108,489.163z M470.434,398.925H41.568v-35.038h43.059h342.748h43.059V398.925z"/>
	</g>
</g>
<g>
	<g>
		<path d="M351.674,209.56c-1.279-3.936-4.587-6.872-8.646-7.673l-51.476-10.174L265.971,145.9c-2.018-3.613-5.832-5.852-9.97-5.852
			s-7.952,2.238-9.97,5.852l-25.581,45.812l-51.476,10.174c-4.059,0.803-7.367,3.737-8.646,7.673
			c-1.279,3.936-0.328,8.255,2.485,11.29l35.665,38.487l-6.232,52.099c-0.492,4.108,1.279,8.161,4.626,10.594
			c3.349,2.433,7.751,2.864,11.505,1.126l47.624-22.027l47.624,22.027c1.529,0.707,3.164,1.055,4.792,1.055
			c2.372,0,4.728-0.739,6.713-2.181c3.348-2.432,5.118-6.486,4.626-10.594l-6.232-52.099l35.665-38.487
			C352.002,217.814,352.952,213.496,351.674,209.56z M293.184,247.687c-2.277,2.457-3.361,5.79-2.962,9.117l4.43,37.04
			l-33.858-15.659c-1.521-0.703-3.157-1.055-4.794-1.055s-3.273,0.352-4.794,1.055l-33.858,15.659l4.43-37.04
			c0.398-3.326-0.685-6.661-2.962-9.117l-25.356-27.362l36.596-7.233c3.286-0.65,6.122-2.71,7.756-5.635L256,174.889l18.187,32.568
			c1.634,2.925,4.469,4.985,7.756,5.635l36.596,7.233L293.184,247.687z"/>
	</g>
</g>
<g>
</g>
<g>
</g>
<g>
</g>
<g>
</g>
<g>
</g>
<g>
</g>
<g>
</g>
<g>
</g>
<g>
</g>
<g>
</g>
<g>
</g>
<g>
</g>
<g>
</g>
<g>
</g>
<g>
</g>
</svg>
